<mxfile host="app.diagrams.net" modified="2024-03-01T16:24:09.692Z" agent="Mozilla/5.0 (Macintosh; Intel Mac OS X 10.15; rv:122.0) Gecko/20100101 Firefox/122.0" etag="eMU68tu2BSSDyYFkA_0D" version="21.6.6" type="github">
  <diagram id="R2lEEEUBdFMjLlhIrx00" name="Page-1">
    <mxGraphModel dx="3235" dy="2705" grid="1" gridSize="10" guides="1" tooltips="1" connect="1" arrows="1" fold="1" page="1" pageScale="1" pageWidth="850" pageHeight="1100" math="0" shadow="0" extFonts="Permanent Marker^https://fonts.googleapis.com/css?family=Permanent+Marker">
      <root>
        <mxCell id="0" />
        <mxCell id="1" parent="0" />
        <mxCell id="kXjSdllbdSpg_7BeK22m-8" value="مشتری" style="rounded=1;arcSize=10;whiteSpace=wrap;html=1;align=center;fontSize=29;" parent="1" vertex="1">
          <mxGeometry x="30" y="230" width="120" height="60" as="geometry" />
        </mxCell>
        <mxCell id="kXjSdllbdSpg_7BeK22m-9" value="راننده" style="rounded=1;arcSize=10;whiteSpace=wrap;html=1;align=center;fontSize=29;" parent="1" vertex="1">
          <mxGeometry x="340" y="480" width="120" height="60" as="geometry" />
        </mxCell>
        <mxCell id="kXjSdllbdSpg_7BeK22m-10" value="کارمند" style="rounded=1;arcSize=10;whiteSpace=wrap;html=1;align=center;fontSize=29;" parent="1" vertex="1">
          <mxGeometry x="820" y="200" width="120" height="60" as="geometry" />
        </mxCell>
        <mxCell id="kXjSdllbdSpg_7BeK22m-11" value="" style="endArrow=none;html=1;rounded=0;exitX=0.05;exitY=0.675;exitDx=0;exitDy=0;exitPerimeter=0;fontSize=29;" parent="1" source="kXjSdllbdSpg_7BeK22m-16" target="kXjSdllbdSpg_7BeK22m-12" edge="1">
          <mxGeometry width="50" height="50" relative="1" as="geometry">
            <mxPoint x="380" y="540" as="sourcePoint" />
            <mxPoint x="400" y="490" as="targetPoint" />
          </mxGeometry>
        </mxCell>
        <mxCell id="kXjSdllbdSpg_7BeK22m-12" value="&lt;font style=&quot;font-size: 27px;&quot;&gt;تاکسی&lt;/font&gt;" style="rounded=1;arcSize=10;whiteSpace=wrap;html=1;align=center;" parent="1" vertex="1">
          <mxGeometry x="-140" y="910" width="100" height="40" as="geometry" />
        </mxCell>
        <mxCell id="kXjSdllbdSpg_7BeK22m-13" value="تاکسی بانوان" style="rounded=1;arcSize=10;whiteSpace=wrap;html=1;align=center;fontSize=29;" parent="1" vertex="1">
          <mxGeometry x="210" y="910" width="200" height="40" as="geometry" />
        </mxCell>
        <mxCell id="kXjSdllbdSpg_7BeK22m-14" value="بکسی باکس" style="rounded=1;arcSize=10;whiteSpace=wrap;html=1;align=center;fontSize=29;" parent="1" vertex="1">
          <mxGeometry x="560" y="920" width="170" height="40" as="geometry" />
        </mxCell>
        <mxCell id="kXjSdllbdSpg_7BeK22m-15" value="بکسی بار" style="rounded=1;arcSize=10;whiteSpace=wrap;html=1;align=center;fontSize=29;" parent="1" vertex="1">
          <mxGeometry x="860" y="920" width="140" height="40" as="geometry" />
        </mxCell>
        <mxCell id="kXjSdllbdSpg_7BeK22m-16" value="&lt;div style=&quot;font-size: 29px;&quot;&gt;d&lt;/div&gt;" style="ellipse;whiteSpace=wrap;html=1;aspect=fixed;fontSize=29;" parent="1" vertex="1">
          <mxGeometry x="380" y="620" width="40" height="40" as="geometry" />
        </mxCell>
        <mxCell id="kXjSdllbdSpg_7BeK22m-17" value="" style="endArrow=none;html=1;rounded=0;entryX=0.5;entryY=1;entryDx=0;entryDy=0;fontSize=29;exitX=0.5;exitY=0;exitDx=0;exitDy=0;" parent="1" source="kXjSdllbdSpg_7BeK22m-16" target="kXjSdllbdSpg_7BeK22m-9" edge="1">
          <mxGeometry width="50" height="50" relative="1" as="geometry">
            <mxPoint x="400" y="660" as="sourcePoint" />
            <mxPoint x="400" y="490" as="targetPoint" />
          </mxGeometry>
        </mxCell>
        <mxCell id="kXjSdllbdSpg_7BeK22m-18" value="" style="endArrow=none;html=1;rounded=0;exitX=0.5;exitY=0;exitDx=0;exitDy=0;entryX=0.35;entryY=1.1;entryDx=0;entryDy=0;entryPerimeter=0;fontSize=29;" parent="1" source="kXjSdllbdSpg_7BeK22m-13" target="kXjSdllbdSpg_7BeK22m-16" edge="1">
          <mxGeometry width="50" height="50" relative="1" as="geometry">
            <mxPoint x="350" y="610" as="sourcePoint" />
            <mxPoint x="400" y="560" as="targetPoint" />
          </mxGeometry>
        </mxCell>
        <mxCell id="kXjSdllbdSpg_7BeK22m-19" value="" style="endArrow=none;html=1;rounded=0;exitX=0.37;exitY=-0.025;exitDx=0;exitDy=0;entryX=1;entryY=1;entryDx=0;entryDy=0;exitPerimeter=0;fontSize=29;" parent="1" source="kXjSdllbdSpg_7BeK22m-14" target="kXjSdllbdSpg_7BeK22m-16" edge="1">
          <mxGeometry width="50" height="50" relative="1" as="geometry">
            <mxPoint x="350" y="680" as="sourcePoint" />
            <mxPoint x="410" y="570" as="targetPoint" />
          </mxGeometry>
        </mxCell>
        <mxCell id="kXjSdllbdSpg_7BeK22m-21" value="" style="endArrow=none;html=1;rounded=0;exitX=0;exitY=0.5;exitDx=0;exitDy=0;entryX=0.975;entryY=0.325;entryDx=0;entryDy=0;entryPerimeter=0;fontSize=29;" parent="1" source="kXjSdllbdSpg_7BeK22m-15" target="kXjSdllbdSpg_7BeK22m-16" edge="1">
          <mxGeometry width="50" height="50" relative="1" as="geometry">
            <mxPoint x="463" y="630" as="sourcePoint" />
            <mxPoint x="430" y="550" as="targetPoint" />
          </mxGeometry>
        </mxCell>
        <mxCell id="kXjSdllbdSpg_7BeK22m-23" value="" style="endArrow=none;html=1;rounded=0;entryX=0;entryY=0.5;entryDx=0;entryDy=0;fontSize=29;exitX=1;exitY=0.5;exitDx=0;exitDy=0;" parent="1" source="kXjSdllbdSpg_7BeK22m-9" edge="1" target="kXjSdllbdSpg_7BeK22m-35">
          <mxGeometry relative="1" as="geometry">
            <mxPoint x="490" y="580" as="sourcePoint" />
            <mxPoint x="609.96" y="464.98" as="targetPoint" />
          </mxGeometry>
        </mxCell>
        <mxCell id="kXjSdllbdSpg_7BeK22m-26" value="" style="endArrow=none;html=1;rounded=0;exitX=0.75;exitY=0;exitDx=0;exitDy=0;entryX=0.6;entryY=1;entryDx=0;entryDy=0;entryPerimeter=0;fontSize=29;" parent="1" source="kXjSdllbdSpg_7BeK22m-32" target="kXjSdllbdSpg_7BeK22m-29" edge="1">
          <mxGeometry relative="1" as="geometry">
            <mxPoint x="935" y="430" as="sourcePoint" />
            <mxPoint x="950" y="360" as="targetPoint" />
          </mxGeometry>
        </mxCell>
        <mxCell id="kXjSdllbdSpg_7BeK22m-29" value="مدل " style="ellipse;whiteSpace=wrap;html=1;align=center;fontSize=29;" parent="1" vertex="1">
          <mxGeometry x="1210" y="320" width="100" height="40" as="geometry" />
        </mxCell>
        <mxCell id="kXjSdllbdSpg_7BeK22m-32" value="وسیله نقلیه" style="shape=ext;margin=3;double=1;whiteSpace=wrap;html=1;align=center;fontSize=29;" parent="1" vertex="1">
          <mxGeometry x="1210" y="460" width="130" height="60" as="geometry" />
        </mxCell>
        <mxCell id="kXjSdllbdSpg_7BeK22m-33" value="" style="shape=link;html=1;rounded=0;entryX=0;entryY=0.5;entryDx=0;entryDy=0;exitX=1;exitY=0.5;exitDx=0;exitDy=0;fontSize=29;" parent="1" target="kXjSdllbdSpg_7BeK22m-32" edge="1" source="kXjSdllbdSpg_7BeK22m-35">
          <mxGeometry relative="1" as="geometry">
            <mxPoint x="711" y="460" as="sourcePoint" />
            <mxPoint x="850" y="460" as="targetPoint" />
            <Array as="points">
              <mxPoint x="1090" y="510" />
            </Array>
          </mxGeometry>
        </mxCell>
        <mxCell id="kXjSdllbdSpg_7BeK22m-34" value="1" style="resizable=0;html=1;whiteSpace=wrap;align=right;verticalAlign=bottom;fontSize=29;" parent="kXjSdllbdSpg_7BeK22m-33" connectable="0" vertex="1">
          <mxGeometry x="1" relative="1" as="geometry" />
        </mxCell>
        <mxCell id="kXjSdllbdSpg_7BeK22m-35" value="داشتن" style="shape=rhombus;double=1;perimeter=rhombusPerimeter;whiteSpace=wrap;html=1;align=center;fontSize=29;" parent="1" vertex="1">
          <mxGeometry x="830" y="480" width="120" height="60" as="geometry" />
        </mxCell>
        <mxCell id="kXjSdllbdSpg_7BeK22m-36" value="نام" style="ellipse;whiteSpace=wrap;html=1;align=center;fontSize=29;" parent="1" vertex="1">
          <mxGeometry x="1220" y="220" width="100" height="40" as="geometry" />
        </mxCell>
        <mxCell id="kXjSdllbdSpg_7BeK22m-37" value="سال تولید" style="ellipse;whiteSpace=wrap;html=1;align=center;fontSize=29;" parent="1" vertex="1">
          <mxGeometry x="1280" y="260" width="100" height="40" as="geometry" />
        </mxCell>
        <mxCell id="kXjSdllbdSpg_7BeK22m-39" value="رنگ" style="ellipse;whiteSpace=wrap;html=1;align=center;fontSize=29;" parent="1" vertex="1">
          <mxGeometry x="1425" y="1000" width="100" height="40" as="geometry" />
        </mxCell>
        <mxCell id="kXjSdllbdSpg_7BeK22m-40" value="‍پلاک" style="ellipse;whiteSpace=wrap;html=1;align=center;fontSize=29;" parent="1" vertex="1">
          <mxGeometry x="1310" y="350" width="100" height="40" as="geometry" />
        </mxCell>
        <mxCell id="kXjSdllbdSpg_7BeK22m-41" value="نوع سوخت" style="ellipse;whiteSpace=wrap;html=1;align=center;fontSize=29;" parent="1" vertex="1">
          <mxGeometry x="1505" y="1040" width="140" height="40" as="geometry" />
        </mxCell>
        <mxCell id="kXjSdllbdSpg_7BeK22m-42" value="ظرفیت" style="ellipse;whiteSpace=wrap;html=1;align=center;fontSize=29;" parent="1" vertex="1">
          <mxGeometry x="1130" y="370" width="100" height="40" as="geometry" />
        </mxCell>
        <mxCell id="kXjSdllbdSpg_7BeK22m-44" value="" style="endArrow=none;html=1;rounded=0;exitX=0;exitY=0.5;exitDx=0;exitDy=0;fontSize=29;entryX=1;entryY=0;entryDx=0;entryDy=0;" parent="1" source="kXjSdllbdSpg_7BeK22m-41" target="kXjSdllbdSpg_7BeK22m-47" edge="1">
          <mxGeometry relative="1" as="geometry">
            <mxPoint x="595" y="1200" as="sourcePoint" />
            <mxPoint x="1335" y="1160" as="targetPoint" />
          </mxGeometry>
        </mxCell>
        <mxCell id="kXjSdllbdSpg_7BeK22m-46" value="" style="endArrow=none;html=1;rounded=0;entryX=0.5;entryY=1;entryDx=0;entryDy=0;exitX=0.25;exitY=0;exitDx=0;exitDy=0;fontSize=29;" parent="1" source="kXjSdllbdSpg_7BeK22m-32" edge="1" target="kXjSdllbdSpg_7BeK22m-42">
          <mxGeometry relative="1" as="geometry">
            <mxPoint x="890" y="426" as="sourcePoint" />
            <mxPoint x="822" y="390" as="targetPoint" />
          </mxGeometry>
        </mxCell>
        <mxCell id="kXjSdllbdSpg_7BeK22m-47" value="گاز" style="ellipse;whiteSpace=wrap;html=1;align=center;fontSize=29;" parent="1" vertex="1">
          <mxGeometry x="1450" y="1120" width="100" height="50" as="geometry" />
        </mxCell>
        <mxCell id="kXjSdllbdSpg_7BeK22m-48" value="بنزین" style="ellipse;whiteSpace=wrap;html=1;align=center;fontSize=29;" parent="1" vertex="1">
          <mxGeometry x="1525" y="1180" width="100" height="40" as="geometry" />
        </mxCell>
        <mxCell id="kXjSdllbdSpg_7BeK22m-49" value="دوگانه" style="ellipse;whiteSpace=wrap;html=1;align=center;fontSize=29;" parent="1" vertex="1">
          <mxGeometry x="1560" y="1130" width="100" height="40" as="geometry" />
        </mxCell>
        <mxCell id="kXjSdllbdSpg_7BeK22m-50" value="" style="endArrow=none;html=1;rounded=0;entryX=0.27;entryY=0.9;entryDx=0;entryDy=0;entryPerimeter=0;fontSize=29;exitX=0.5;exitY=0;exitDx=0;exitDy=0;" parent="1" source="kXjSdllbdSpg_7BeK22m-48" target="kXjSdllbdSpg_7BeK22m-41" edge="1">
          <mxGeometry relative="1" as="geometry">
            <mxPoint x="1540" y="1130" as="sourcePoint" />
            <mxPoint x="755" y="1250" as="targetPoint" />
          </mxGeometry>
        </mxCell>
        <mxCell id="kXjSdllbdSpg_7BeK22m-51" value="" style="endArrow=none;html=1;rounded=0;exitX=0.5;exitY=0;exitDx=0;exitDy=0;fontSize=29;entryX=0.679;entryY=1.098;entryDx=0;entryDy=0;entryPerimeter=0;" parent="1" source="kXjSdllbdSpg_7BeK22m-41" target="jmjiHeXXMgDuQLnsEKiA-91" edge="1">
          <mxGeometry relative="1" as="geometry">
            <mxPoint x="1419.9999999999995" y="1081" as="sourcePoint" />
            <mxPoint x="1550" y="990" as="targetPoint" />
          </mxGeometry>
        </mxCell>
        <mxCell id="kXjSdllbdSpg_7BeK22m-52" value="" style="endArrow=none;html=1;rounded=0;entryX=0.94;entryY=0.825;entryDx=0;entryDy=0;entryPerimeter=0;exitX=0.22;exitY=0.125;exitDx=0;exitDy=0;exitPerimeter=0;fontSize=29;" parent="1" source="kXjSdllbdSpg_7BeK22m-49" target="kXjSdllbdSpg_7BeK22m-41" edge="1">
          <mxGeometry relative="1" as="geometry">
            <mxPoint x="845" y="1319" as="sourcePoint" />
            <mxPoint x="817" y="1260" as="targetPoint" />
          </mxGeometry>
        </mxCell>
        <mxCell id="kXjSdllbdSpg_7BeK22m-53" value="تایید کردن" style="shape=rhombus;perimeter=rhombusPerimeter;whiteSpace=wrap;html=1;align=center;fontSize=29;" parent="1" vertex="1">
          <mxGeometry x="780" y="350" width="200" height="60" as="geometry" />
        </mxCell>
        <mxCell id="kXjSdllbdSpg_7BeK22m-54" value="" style="endArrow=none;html=1;rounded=0;entryX=0.5;entryY=1;entryDx=0;entryDy=0;exitX=1;exitY=0.25;exitDx=0;exitDy=0;fontSize=29;" parent="1" source="kXjSdllbdSpg_7BeK22m-9" target="kXjSdllbdSpg_7BeK22m-53" edge="1">
          <mxGeometry relative="1" as="geometry">
            <mxPoint x="280" y="440" as="sourcePoint" />
            <mxPoint x="390" y="380" as="targetPoint" />
            <Array as="points">
              <mxPoint x="680" y="495" />
            </Array>
          </mxGeometry>
        </mxCell>
        <mxCell id="kXjSdllbdSpg_7BeK22m-56" value="" style="endArrow=none;html=1;rounded=0;entryX=0.5;entryY=1;entryDx=0;entryDy=0;exitX=0.5;exitY=0;exitDx=0;exitDy=0;fontSize=29;" parent="1" source="kXjSdllbdSpg_7BeK22m-53" target="kXjSdllbdSpg_7BeK22m-10" edge="1">
          <mxGeometry relative="1" as="geometry">
            <mxPoint x="390" y="320" as="sourcePoint" />
            <mxPoint x="389.5" y="240" as="targetPoint" />
          </mxGeometry>
        </mxCell>
        <mxCell id="jmjiHeXXMgDuQLnsEKiA-1" value="&lt;font style=&quot;font-size: 29px;&quot;&gt;کاربر&lt;/font&gt;" style="whiteSpace=wrap;html=1;align=center;fontSize=29;" vertex="1" parent="1">
          <mxGeometry x="315" y="40" width="170" height="70" as="geometry" />
        </mxCell>
        <mxCell id="jmjiHeXXMgDuQLnsEKiA-2" value="" style="endArrow=none;html=1;rounded=0;entryX=0;entryY=0.5;entryDx=0;entryDy=0;exitX=0.5;exitY=0;exitDx=0;exitDy=0;fontSize=29;" edge="1" parent="1" source="kXjSdllbdSpg_7BeK22m-8" target="jmjiHeXXMgDuQLnsEKiA-5">
          <mxGeometry relative="1" as="geometry">
            <mxPoint x="230" y="200" as="sourcePoint" />
            <mxPoint x="390" y="200" as="targetPoint" />
          </mxGeometry>
        </mxCell>
        <mxCell id="jmjiHeXXMgDuQLnsEKiA-3" value="" style="endArrow=none;html=1;rounded=0;entryX=0.5;entryY=1;entryDx=0;entryDy=0;exitX=0.5;exitY=0;exitDx=0;exitDy=0;fontSize=29;" edge="1" parent="1" source="kXjSdllbdSpg_7BeK22m-9" target="jmjiHeXXMgDuQLnsEKiA-1">
          <mxGeometry relative="1" as="geometry">
            <mxPoint x="248" y="346.5" as="sourcePoint" />
            <mxPoint x="460" y="213.5" as="targetPoint" />
          </mxGeometry>
        </mxCell>
        <mxCell id="jmjiHeXXMgDuQLnsEKiA-4" value="" style="endArrow=none;html=1;rounded=0;entryX=1;entryY=0.5;entryDx=0;entryDy=0;exitX=0;exitY=0.75;exitDx=0;exitDy=0;fontSize=29;" edge="1" parent="1" source="kXjSdllbdSpg_7BeK22m-10" target="jmjiHeXXMgDuQLnsEKiA-5">
          <mxGeometry relative="1" as="geometry">
            <mxPoint x="319" y="320" as="sourcePoint" />
            <mxPoint x="531" y="187" as="targetPoint" />
          </mxGeometry>
        </mxCell>
        <mxCell id="jmjiHeXXMgDuQLnsEKiA-5" value="&lt;div style=&quot;font-size: 29px;&quot;&gt;d&lt;/div&gt;" style="ellipse;whiteSpace=wrap;html=1;aspect=fixed;fontSize=29;" vertex="1" parent="1">
          <mxGeometry x="370" y="210" width="40" height="40" as="geometry" />
        </mxCell>
        <mxCell id="jmjiHeXXMgDuQLnsEKiA-10" value="نام خانوادگی" style="ellipse;whiteSpace=wrap;html=1;align=center;fontSize=29;" vertex="1" parent="1">
          <mxGeometry x="210" y="-130" width="170" height="50" as="geometry" />
        </mxCell>
        <mxCell id="jmjiHeXXMgDuQLnsEKiA-11" value="نام" style="ellipse;whiteSpace=wrap;html=1;align=center;fontSize=29;" vertex="1" parent="1">
          <mxGeometry x="460" y="-110" width="100" height="40" as="geometry" />
        </mxCell>
        <mxCell id="jmjiHeXXMgDuQLnsEKiA-14" value="" style="endArrow=none;html=1;rounded=0;entryX=0.333;entryY=1.042;entryDx=0;entryDy=0;fontSize=29;entryPerimeter=0;" edge="1" parent="1" source="jmjiHeXXMgDuQLnsEKiA-1" target="jmjiHeXXMgDuQLnsEKiA-10">
          <mxGeometry relative="1" as="geometry">
            <mxPoint x="323.5" y="250" as="sourcePoint" />
            <mxPoint x="336.5" y="-81" as="targetPoint" />
          </mxGeometry>
        </mxCell>
        <mxCell id="jmjiHeXXMgDuQLnsEKiA-15" value="" style="endArrow=none;html=1;rounded=0;entryX=0.5;entryY=1;entryDx=0;entryDy=0;fontSize=29;exitX=0.686;exitY=0.048;exitDx=0;exitDy=0;exitPerimeter=0;" edge="1" parent="1" source="jmjiHeXXMgDuQLnsEKiA-1">
          <mxGeometry relative="1" as="geometry">
            <mxPoint x="498" y="260" as="sourcePoint" />
            <mxPoint x="498" y="-71" as="targetPoint" />
          </mxGeometry>
        </mxCell>
        <mxCell id="jmjiHeXXMgDuQLnsEKiA-16" value="جنسیت" style="ellipse;whiteSpace=wrap;html=1;align=center;fontSize=29;" vertex="1" parent="1">
          <mxGeometry x="-110" y="360" width="100" height="40" as="geometry" />
        </mxCell>
        <mxCell id="jmjiHeXXMgDuQLnsEKiA-17" value="" style="endArrow=none;html=1;rounded=0;entryX=0.25;entryY=1;entryDx=0;entryDy=0;fontSize=29;exitX=1;exitY=0;exitDx=0;exitDy=0;" edge="1" parent="1" source="jmjiHeXXMgDuQLnsEKiA-16" target="kXjSdllbdSpg_7BeK22m-8">
          <mxGeometry relative="1" as="geometry">
            <mxPoint x="100" y="410" as="sourcePoint" />
            <mxPoint x="156" y="313" as="targetPoint" />
          </mxGeometry>
        </mxCell>
        <mxCell id="jmjiHeXXMgDuQLnsEKiA-18" value="" style="endArrow=none;html=1;rounded=0;entryX=0;entryY=0.5;entryDx=0;entryDy=0;fontSize=29;exitX=1;exitY=0.5;exitDx=0;exitDy=0;" edge="1" parent="1" source="jmjiHeXXMgDuQLnsEKiA-19" target="kXjSdllbdSpg_7BeK22m-9">
          <mxGeometry relative="1" as="geometry">
            <mxPoint x="270" y="560" as="sourcePoint" />
            <mxPoint x="340" y="480" as="targetPoint" />
          </mxGeometry>
        </mxCell>
        <mxCell id="jmjiHeXXMgDuQLnsEKiA-19" value="جنسیت" style="ellipse;whiteSpace=wrap;html=1;align=center;fontSize=29;" vertex="1" parent="1">
          <mxGeometry x="100" y="500" width="100" height="40" as="geometry" />
        </mxCell>
        <mxCell id="jmjiHeXXMgDuQLnsEKiA-22" value="کدملی" style="ellipse;whiteSpace=wrap;html=1;align=center;fontSize=29;" vertex="1" parent="1">
          <mxGeometry x="860" y="80" width="100" height="40" as="geometry" />
        </mxCell>
        <mxCell id="jmjiHeXXMgDuQLnsEKiA-23" value="شماره شبا" style="ellipse;whiteSpace=wrap;html=1;align=center;fontSize=29;" vertex="1" parent="1">
          <mxGeometry x="610" y="150" width="160" height="40" as="geometry" />
        </mxCell>
        <mxCell id="jmjiHeXXMgDuQLnsEKiA-24" value="کد‍ پرسنلی" style="ellipse;whiteSpace=wrap;html=1;align=center;fontSize=29;" vertex="1" parent="1">
          <mxGeometry x="610" y="100" width="150" height="40" as="geometry" />
        </mxCell>
        <mxCell id="jmjiHeXXMgDuQLnsEKiA-25" value="د‍‍پارتمان" style="ellipse;whiteSpace=wrap;html=1;align=center;fontSize=29;" vertex="1" parent="1">
          <mxGeometry x="700" y="-20" width="100" height="40" as="geometry" />
        </mxCell>
        <mxCell id="jmjiHeXXMgDuQLnsEKiA-28" value="سن" style="ellipse;whiteSpace=wrap;html=1;align=center;fontSize=29;" vertex="1" parent="1">
          <mxGeometry x="640" y="40" width="100" height="40" as="geometry" />
        </mxCell>
        <mxCell id="jmjiHeXXMgDuQLnsEKiA-29" value="سمت" style="ellipse;whiteSpace=wrap;html=1;align=center;fontSize=29;" vertex="1" parent="1">
          <mxGeometry x="780" y="20" width="100" height="40" as="geometry" />
        </mxCell>
        <mxCell id="jmjiHeXXMgDuQLnsEKiA-30" value="عکس" style="ellipse;whiteSpace=wrap;html=1;align=center;fontSize=29;" vertex="1" parent="1">
          <mxGeometry x="900" y="20" width="100" height="40" as="geometry" />
        </mxCell>
        <mxCell id="jmjiHeXXMgDuQLnsEKiA-34" value="مدرک تحصیلی" style="ellipse;whiteSpace=wrap;html=1;align=center;fontSize=29;" vertex="1" parent="1">
          <mxGeometry x="1010" y="50" width="170" height="40" as="geometry" />
        </mxCell>
        <mxCell id="jmjiHeXXMgDuQLnsEKiA-35" value="حقوق" style="ellipse;whiteSpace=wrap;html=1;align=center;fontSize=29;" vertex="1" parent="1">
          <mxGeometry x="1020" y="-10" width="100" height="40" as="geometry" />
        </mxCell>
        <mxCell id="jmjiHeXXMgDuQLnsEKiA-36" value="میزان مهارت" style="ellipse;whiteSpace=wrap;html=1;align=center;fontSize=29;" vertex="1" parent="1">
          <mxGeometry x="1010" y="100" width="170" height="40" as="geometry" />
        </mxCell>
        <mxCell id="jmjiHeXXMgDuQLnsEKiA-37" value="" style="endArrow=none;html=1;rounded=0;exitX=0.25;exitY=0;exitDx=0;exitDy=0;entryX=0.5;entryY=1;entryDx=0;entryDy=0;" edge="1" parent="1" source="kXjSdllbdSpg_7BeK22m-10" target="jmjiHeXXMgDuQLnsEKiA-23">
          <mxGeometry relative="1" as="geometry">
            <mxPoint x="630" y="70" as="sourcePoint" />
            <mxPoint x="790" y="70" as="targetPoint" />
          </mxGeometry>
        </mxCell>
        <mxCell id="jmjiHeXXMgDuQLnsEKiA-38" value="" style="endArrow=none;html=1;rounded=0;exitX=0.5;exitY=0;exitDx=0;exitDy=0;entryX=1;entryY=1;entryDx=0;entryDy=0;" edge="1" parent="1" source="kXjSdllbdSpg_7BeK22m-10" target="jmjiHeXXMgDuQLnsEKiA-24">
          <mxGeometry relative="1" as="geometry">
            <mxPoint x="710" y="100" as="sourcePoint" />
            <mxPoint x="690" y="20" as="targetPoint" />
          </mxGeometry>
        </mxCell>
        <mxCell id="jmjiHeXXMgDuQLnsEKiA-39" value="" style="endArrow=none;html=1;rounded=0;exitX=0.663;exitY=-0.056;exitDx=0;exitDy=0;exitPerimeter=0;" edge="1" parent="1" source="kXjSdllbdSpg_7BeK22m-10" target="jmjiHeXXMgDuQLnsEKiA-28">
          <mxGeometry relative="1" as="geometry">
            <mxPoint x="690" y="110" as="sourcePoint" />
            <mxPoint x="810" y="-70" as="targetPoint" />
          </mxGeometry>
        </mxCell>
        <mxCell id="jmjiHeXXMgDuQLnsEKiA-40" value="" style="endArrow=none;html=1;rounded=0;exitX=0.75;exitY=0;exitDx=0;exitDy=0;entryX=0;entryY=1;entryDx=0;entryDy=0;" edge="1" parent="1" source="kXjSdllbdSpg_7BeK22m-10" target="jmjiHeXXMgDuQLnsEKiA-25">
          <mxGeometry relative="1" as="geometry">
            <mxPoint x="742" y="116" as="sourcePoint" />
            <mxPoint x="820" y="-30" as="targetPoint" />
          </mxGeometry>
        </mxCell>
        <mxCell id="jmjiHeXXMgDuQLnsEKiA-41" value="" style="endArrow=none;html=1;rounded=0;exitX=0.875;exitY=0.005;exitDx=0;exitDy=0;entryX=0;entryY=1;entryDx=0;entryDy=0;exitPerimeter=0;" edge="1" parent="1" source="kXjSdllbdSpg_7BeK22m-10" target="jmjiHeXXMgDuQLnsEKiA-29">
          <mxGeometry relative="1" as="geometry">
            <mxPoint x="720" y="110" as="sourcePoint" />
            <mxPoint x="815" y="-6" as="targetPoint" />
          </mxGeometry>
        </mxCell>
        <mxCell id="jmjiHeXXMgDuQLnsEKiA-42" value="" style="endArrow=none;html=1;rounded=0;exitX=1;exitY=0;exitDx=0;exitDy=0;entryX=0;entryY=0.5;entryDx=0;entryDy=0;" edge="1" parent="1" source="kXjSdllbdSpg_7BeK22m-10" target="jmjiHeXXMgDuQLnsEKiA-22">
          <mxGeometry relative="1" as="geometry">
            <mxPoint x="720" y="110" as="sourcePoint" />
            <mxPoint x="815" y="-6" as="targetPoint" />
          </mxGeometry>
        </mxCell>
        <mxCell id="jmjiHeXXMgDuQLnsEKiA-43" value="" style="endArrow=none;html=1;rounded=0;exitX=1;exitY=0;exitDx=0;exitDy=0;entryX=1;entryY=1;entryDx=0;entryDy=0;" edge="1" parent="1" source="kXjSdllbdSpg_7BeK22m-10" target="jmjiHeXXMgDuQLnsEKiA-30">
          <mxGeometry relative="1" as="geometry">
            <mxPoint x="750" y="110" as="sourcePoint" />
            <mxPoint x="890" y="20" as="targetPoint" />
          </mxGeometry>
        </mxCell>
        <mxCell id="jmjiHeXXMgDuQLnsEKiA-44" value="" style="endArrow=none;html=1;rounded=0;exitX=1;exitY=0.25;exitDx=0;exitDy=0;entryX=0;entryY=0.5;entryDx=0;entryDy=0;" edge="1" parent="1" source="kXjSdllbdSpg_7BeK22m-10" target="jmjiHeXXMgDuQLnsEKiA-35">
          <mxGeometry relative="1" as="geometry">
            <mxPoint x="750" y="110" as="sourcePoint" />
            <mxPoint x="860" y="85" as="targetPoint" />
          </mxGeometry>
        </mxCell>
        <mxCell id="jmjiHeXXMgDuQLnsEKiA-45" value="" style="endArrow=none;html=1;rounded=0;exitX=1;exitY=0.5;exitDx=0;exitDy=0;entryX=0;entryY=0;entryDx=0;entryDy=0;" edge="1" parent="1" source="kXjSdllbdSpg_7BeK22m-10" target="jmjiHeXXMgDuQLnsEKiA-34">
          <mxGeometry relative="1" as="geometry">
            <mxPoint x="750" y="125" as="sourcePoint" />
            <mxPoint x="980" y="125" as="targetPoint" />
          </mxGeometry>
        </mxCell>
        <mxCell id="jmjiHeXXMgDuQLnsEKiA-46" value="" style="endArrow=none;html=1;rounded=0;exitX=1;exitY=0.25;exitDx=0;exitDy=0;entryX=0;entryY=1;entryDx=0;entryDy=0;" edge="1" parent="1" source="kXjSdllbdSpg_7BeK22m-10" target="jmjiHeXXMgDuQLnsEKiA-36">
          <mxGeometry relative="1" as="geometry">
            <mxPoint x="750" y="140" as="sourcePoint" />
            <mxPoint x="995" y="166" as="targetPoint" />
          </mxGeometry>
        </mxCell>
        <mxCell id="jmjiHeXXMgDuQLnsEKiA-47" value="تلفن همراه" style="ellipse;whiteSpace=wrap;html=1;align=center;fontSize=29;" vertex="1" parent="1">
          <mxGeometry y="340" width="130" height="40" as="geometry" />
        </mxCell>
        <mxCell id="jmjiHeXXMgDuQLnsEKiA-48" value="" style="endArrow=none;html=1;rounded=0;exitX=0.5;exitY=1;exitDx=0;exitDy=0;entryX=0.416;entryY=-0.016;entryDx=0;entryDy=0;entryPerimeter=0;" edge="1" parent="1" source="kXjSdllbdSpg_7BeK22m-8" target="jmjiHeXXMgDuQLnsEKiA-47">
          <mxGeometry relative="1" as="geometry">
            <mxPoint x="180" y="330" as="sourcePoint" />
            <mxPoint x="340" y="330" as="targetPoint" />
          </mxGeometry>
        </mxCell>
        <mxCell id="jmjiHeXXMgDuQLnsEKiA-49" value="&lt;font style=&quot;font-size: 36px;&quot;&gt;ادرس&lt;/font&gt;" style="ellipse;shape=doubleEllipse;margin=3;whiteSpace=wrap;html=1;align=center;" vertex="1" parent="1">
          <mxGeometry x="-165" y="300" width="150" height="50" as="geometry" />
        </mxCell>
        <mxCell id="jmjiHeXXMgDuQLnsEKiA-50" value="" style="endArrow=none;html=1;rounded=0;entryX=0;entryY=0.5;entryDx=0;entryDy=0;exitX=1;exitY=0.5;exitDx=0;exitDy=0;" edge="1" parent="1" source="jmjiHeXXMgDuQLnsEKiA-49" target="kXjSdllbdSpg_7BeK22m-8">
          <mxGeometry relative="1" as="geometry">
            <mxPoint x="-80" y="344.09" as="sourcePoint" />
            <mxPoint x="80" y="344.09" as="targetPoint" />
          </mxGeometry>
        </mxCell>
        <mxCell id="jmjiHeXXMgDuQLnsEKiA-59" value="" style="endArrow=none;html=1;rounded=0;entryX=0.382;entryY=1.031;entryDx=0;entryDy=0;entryPerimeter=0;exitX=0.659;exitY=-0.061;exitDx=0;exitDy=0;exitPerimeter=0;" edge="1" parent="1" source="kXjSdllbdSpg_7BeK22m-29" target="kXjSdllbdSpg_7BeK22m-36">
          <mxGeometry relative="1" as="geometry">
            <mxPoint x="1170" y="280" as="sourcePoint" />
            <mxPoint x="1460" y="420" as="targetPoint" />
          </mxGeometry>
        </mxCell>
        <mxCell id="jmjiHeXXMgDuQLnsEKiA-60" value="" style="endArrow=none;html=1;rounded=0;entryX=0.5;entryY=1;entryDx=0;entryDy=0;exitX=1;exitY=0;exitDx=0;exitDy=0;" edge="1" parent="1" source="kXjSdllbdSpg_7BeK22m-39" target="jmjiHeXXMgDuQLnsEKiA-91">
          <mxGeometry relative="1" as="geometry">
            <mxPoint x="1479.97" y="1105.73" as="sourcePoint" />
            <mxPoint x="1504.9995039998846" y="970.0012794073605" as="targetPoint" />
          </mxGeometry>
        </mxCell>
        <mxCell id="jmjiHeXXMgDuQLnsEKiA-61" value="" style="endArrow=none;html=1;rounded=0;entryX=0;entryY=1;entryDx=0;entryDy=0;exitX=0.75;exitY=0.075;exitDx=0;exitDy=0;exitPerimeter=0;" edge="1" parent="1" source="kXjSdllbdSpg_7BeK22m-29" target="kXjSdllbdSpg_7BeK22m-37">
          <mxGeometry relative="1" as="geometry">
            <mxPoint x="1260" y="290" as="sourcePoint" />
            <mxPoint x="1298" y="391" as="targetPoint" />
          </mxGeometry>
        </mxCell>
        <mxCell id="jmjiHeXXMgDuQLnsEKiA-62" value="" style="endArrow=none;html=1;rounded=0;exitX=1;exitY=0;exitDx=0;exitDy=0;entryX=0.5;entryY=1;entryDx=0;entryDy=0;" edge="1" parent="1" source="kXjSdllbdSpg_7BeK22m-32" target="kXjSdllbdSpg_7BeK22m-40">
          <mxGeometry relative="1" as="geometry">
            <mxPoint x="1305" y="480" as="sourcePoint" />
            <mxPoint x="1308" y="401" as="targetPoint" />
          </mxGeometry>
        </mxCell>
        <mxCell id="jmjiHeXXMgDuQLnsEKiA-72" value="سن" style="ellipse;whiteSpace=wrap;html=1;align=center;fontSize=29;" vertex="1" parent="1">
          <mxGeometry x="15" y="540" width="100" height="40" as="geometry" />
        </mxCell>
        <mxCell id="jmjiHeXXMgDuQLnsEKiA-73" value="کدملی" style="ellipse;whiteSpace=wrap;html=1;align=center;fontSize=29;" vertex="1" parent="1">
          <mxGeometry x="220" y="580" width="100" height="40" as="geometry" />
        </mxCell>
        <mxCell id="jmjiHeXXMgDuQLnsEKiA-75" value="" style="endArrow=none;html=1;rounded=0;entryX=0;entryY=0.75;entryDx=0;entryDy=0;fontSize=29;exitX=1;exitY=0.5;exitDx=0;exitDy=0;" edge="1" parent="1" source="jmjiHeXXMgDuQLnsEKiA-72" target="kXjSdllbdSpg_7BeK22m-9">
          <mxGeometry relative="1" as="geometry">
            <mxPoint x="220" y="540" as="sourcePoint" />
            <mxPoint x="310" y="540" as="targetPoint" />
          </mxGeometry>
        </mxCell>
        <mxCell id="jmjiHeXXMgDuQLnsEKiA-76" value="" style="endArrow=none;html=1;rounded=0;entryX=0.25;entryY=1;entryDx=0;entryDy=0;fontSize=29;exitX=0.5;exitY=0;exitDx=0;exitDy=0;" edge="1" parent="1" source="jmjiHeXXMgDuQLnsEKiA-73" target="kXjSdllbdSpg_7BeK22m-9">
          <mxGeometry relative="1" as="geometry">
            <mxPoint x="270" y="530" as="sourcePoint" />
            <mxPoint x="360" y="530" as="targetPoint" />
          </mxGeometry>
        </mxCell>
        <mxCell id="jmjiHeXXMgDuQLnsEKiA-77" value="کارت ملی" style="ellipse;whiteSpace=wrap;html=1;align=center;fontSize=29;" vertex="1" parent="1">
          <mxGeometry x="130" y="450" width="100" height="40" as="geometry" />
        </mxCell>
        <mxCell id="jmjiHeXXMgDuQLnsEKiA-78" value="" style="endArrow=none;html=1;rounded=0;entryX=0;entryY=0.25;entryDx=0;entryDy=0;fontSize=29;exitX=1;exitY=0.5;exitDx=0;exitDy=0;" edge="1" parent="1" source="jmjiHeXXMgDuQLnsEKiA-77" target="kXjSdllbdSpg_7BeK22m-9">
          <mxGeometry relative="1" as="geometry">
            <mxPoint x="210" y="530" as="sourcePoint" />
            <mxPoint x="350" y="520" as="targetPoint" />
          </mxGeometry>
        </mxCell>
        <mxCell id="jmjiHeXXMgDuQLnsEKiA-80" value="گواهینامه" style="ellipse;whiteSpace=wrap;html=1;align=center;fontSize=29;" vertex="1" parent="1">
          <mxGeometry x="110" y="580" width="100" height="40" as="geometry" />
        </mxCell>
        <mxCell id="jmjiHeXXMgDuQLnsEKiA-81" value="عکس" style="ellipse;whiteSpace=wrap;html=1;align=center;fontSize=29;" vertex="1" parent="1">
          <mxGeometry x="240" y="410" width="100" height="40" as="geometry" />
        </mxCell>
        <mxCell id="jmjiHeXXMgDuQLnsEKiA-82" value="ناتوانی" style="ellipse;whiteSpace=wrap;html=1;align=center;fontSize=29;" vertex="1" parent="1">
          <mxGeometry x="170" y="640" width="100" height="40" as="geometry" />
        </mxCell>
        <mxCell id="jmjiHeXXMgDuQLnsEKiA-83" value="شماره شبا" style="ellipse;whiteSpace=wrap;html=1;align=center;fontSize=29;" vertex="1" parent="1">
          <mxGeometry x="500" y="540" width="160" height="40" as="geometry" />
        </mxCell>
        <mxCell id="jmjiHeXXMgDuQLnsEKiA-84" value="نوع سرویس" style="ellipse;whiteSpace=wrap;html=1;align=center;fontSize=29;" vertex="1" parent="1">
          <mxGeometry x="470" y="590" width="160" height="40" as="geometry" />
        </mxCell>
        <mxCell id="jmjiHeXXMgDuQLnsEKiA-85" value="&lt;div style=&quot;font-size: 29px;&quot;&gt;d&lt;/div&gt;" style="ellipse;whiteSpace=wrap;html=1;aspect=fixed;fontSize=29;" vertex="1" parent="1">
          <mxGeometry x="1250" y="610" width="40" height="40" as="geometry" />
        </mxCell>
        <mxCell id="jmjiHeXXMgDuQLnsEKiA-86" value="" style="endArrow=none;html=1;rounded=0;entryX=0.5;entryY=1;entryDx=0;entryDy=0;fontSize=29;exitX=0.5;exitY=0;exitDx=0;exitDy=0;" edge="1" parent="1" source="jmjiHeXXMgDuQLnsEKiA-85" target="kXjSdllbdSpg_7BeK22m-32">
          <mxGeometry width="50" height="50" relative="1" as="geometry">
            <mxPoint x="410" y="630" as="sourcePoint" />
            <mxPoint x="410" y="550" as="targetPoint" />
          </mxGeometry>
        </mxCell>
        <mxCell id="jmjiHeXXMgDuQLnsEKiA-87" value="" style="endArrow=none;html=1;rounded=0;exitX=0.05;exitY=0.675;exitDx=0;exitDy=0;exitPerimeter=0;fontSize=29;entryX=0.5;entryY=0;entryDx=0;entryDy=0;" edge="1" parent="1" target="jmjiHeXXMgDuQLnsEKiA-92">
          <mxGeometry width="50" height="50" relative="1" as="geometry">
            <mxPoint x="1259" y="640" as="sourcePoint" />
            <mxPoint x="1320" y="903" as="targetPoint" />
          </mxGeometry>
        </mxCell>
        <mxCell id="jmjiHeXXMgDuQLnsEKiA-88" value="" style="endArrow=none;html=1;rounded=0;entryX=1;entryY=1;entryDx=0;entryDy=0;fontSize=29;exitX=0.5;exitY=0;exitDx=0;exitDy=0;" edge="1" parent="1" source="jmjiHeXXMgDuQLnsEKiA-91" target="jmjiHeXXMgDuQLnsEKiA-85">
          <mxGeometry width="50" height="50" relative="1" as="geometry">
            <mxPoint x="1540" y="913" as="sourcePoint" />
            <mxPoint x="1271" y="657" as="targetPoint" />
          </mxGeometry>
        </mxCell>
        <mxCell id="jmjiHeXXMgDuQLnsEKiA-89" value="" style="endArrow=none;html=1;rounded=0;entryX=1;entryY=0;entryDx=0;entryDy=0;fontSize=29;exitX=0.5;exitY=0;exitDx=0;exitDy=0;" edge="1" parent="1" source="jmjiHeXXMgDuQLnsEKiA-90" target="jmjiHeXXMgDuQLnsEKiA-85">
          <mxGeometry width="50" height="50" relative="1" as="geometry">
            <mxPoint x="1760" y="902" as="sourcePoint" />
            <mxPoint x="1291" y="647" as="targetPoint" />
          </mxGeometry>
        </mxCell>
        <mxCell id="jmjiHeXXMgDuQLnsEKiA-90" value="موتور" style="rounded=1;arcSize=10;whiteSpace=wrap;html=1;align=center;fontSize=29;" vertex="1" parent="1">
          <mxGeometry x="1690" y="920" width="140" height="40" as="geometry" />
        </mxCell>
        <mxCell id="jmjiHeXXMgDuQLnsEKiA-91" value="ماشین" style="rounded=1;arcSize=10;whiteSpace=wrap;html=1;align=center;fontSize=29;" vertex="1" parent="1">
          <mxGeometry x="1460" y="920" width="140" height="40" as="geometry" />
        </mxCell>
        <mxCell id="jmjiHeXXMgDuQLnsEKiA-92" value="ماشین باری" style="rounded=1;arcSize=10;whiteSpace=wrap;html=1;align=center;fontSize=29;" vertex="1" parent="1">
          <mxGeometry x="1230" y="920" width="150" height="40" as="geometry" />
        </mxCell>
        <mxCell id="jmjiHeXXMgDuQLnsEKiA-94" value="رنگ" style="ellipse;whiteSpace=wrap;html=1;align=center;fontSize=29;" vertex="1" parent="1">
          <mxGeometry x="1160" y="1020" width="100" height="40" as="geometry" />
        </mxCell>
        <mxCell id="jmjiHeXXMgDuQLnsEKiA-95" value="" style="endArrow=none;html=1;rounded=0;entryX=0.361;entryY=1.098;entryDx=0;entryDy=0;exitX=0.5;exitY=0;exitDx=0;exitDy=0;entryPerimeter=0;" edge="1" parent="1" source="jmjiHeXXMgDuQLnsEKiA-94" target="jmjiHeXXMgDuQLnsEKiA-92">
          <mxGeometry relative="1" as="geometry">
            <mxPoint x="1520" y="1016" as="sourcePoint" />
            <mxPoint x="1540" y="970" as="targetPoint" />
          </mxGeometry>
        </mxCell>
        <mxCell id="jmjiHeXXMgDuQLnsEKiA-98" value="نوع سوخت" style="ellipse;whiteSpace=wrap;html=1;align=center;fontSize=29;" vertex="1" parent="1">
          <mxGeometry x="1270" y="1076" width="140" height="40" as="geometry" />
        </mxCell>
        <mxCell id="jmjiHeXXMgDuQLnsEKiA-99" value="" style="endArrow=none;html=1;rounded=0;exitX=0;exitY=0.5;exitDx=0;exitDy=0;fontSize=29;entryX=1;entryY=0;entryDx=0;entryDy=0;" edge="1" parent="1" source="jmjiHeXXMgDuQLnsEKiA-98" target="jmjiHeXXMgDuQLnsEKiA-100">
          <mxGeometry relative="1" as="geometry">
            <mxPoint x="360" y="1236" as="sourcePoint" />
            <mxPoint x="1100" y="1196" as="targetPoint" />
          </mxGeometry>
        </mxCell>
        <mxCell id="jmjiHeXXMgDuQLnsEKiA-100" value="گاز" style="ellipse;whiteSpace=wrap;html=1;align=center;fontSize=29;" vertex="1" parent="1">
          <mxGeometry x="1215" y="1156" width="100" height="50" as="geometry" />
        </mxCell>
        <mxCell id="jmjiHeXXMgDuQLnsEKiA-101" value="بنزین" style="ellipse;whiteSpace=wrap;html=1;align=center;fontSize=29;" vertex="1" parent="1">
          <mxGeometry x="1290" y="1216" width="100" height="40" as="geometry" />
        </mxCell>
        <mxCell id="jmjiHeXXMgDuQLnsEKiA-102" value="دوگانه" style="ellipse;whiteSpace=wrap;html=1;align=center;fontSize=29;" vertex="1" parent="1">
          <mxGeometry x="1325" y="1166" width="100" height="40" as="geometry" />
        </mxCell>
        <mxCell id="jmjiHeXXMgDuQLnsEKiA-103" value="" style="endArrow=none;html=1;rounded=0;entryX=0.27;entryY=0.9;entryDx=0;entryDy=0;entryPerimeter=0;fontSize=29;exitX=0.5;exitY=0;exitDx=0;exitDy=0;" edge="1" parent="1" source="jmjiHeXXMgDuQLnsEKiA-101" target="jmjiHeXXMgDuQLnsEKiA-98">
          <mxGeometry relative="1" as="geometry">
            <mxPoint x="1305" y="1166" as="sourcePoint" />
            <mxPoint x="520" y="1286" as="targetPoint" />
          </mxGeometry>
        </mxCell>
        <mxCell id="jmjiHeXXMgDuQLnsEKiA-104" value="" style="endArrow=none;html=1;rounded=0;exitX=0.5;exitY=0;exitDx=0;exitDy=0;fontSize=29;entryX=0.5;entryY=1;entryDx=0;entryDy=0;" edge="1" parent="1" source="jmjiHeXXMgDuQLnsEKiA-98" target="jmjiHeXXMgDuQLnsEKiA-92">
          <mxGeometry relative="1" as="geometry">
            <mxPoint x="1184.9999999999995" y="1117" as="sourcePoint" />
            <mxPoint x="1320" y="1000" as="targetPoint" />
          </mxGeometry>
        </mxCell>
        <mxCell id="jmjiHeXXMgDuQLnsEKiA-105" value="" style="endArrow=none;html=1;rounded=0;entryX=0.94;entryY=0.825;entryDx=0;entryDy=0;entryPerimeter=0;exitX=0.22;exitY=0.125;exitDx=0;exitDy=0;exitPerimeter=0;fontSize=29;" edge="1" parent="1" source="jmjiHeXXMgDuQLnsEKiA-102" target="jmjiHeXXMgDuQLnsEKiA-98">
          <mxGeometry relative="1" as="geometry">
            <mxPoint x="610" y="1355" as="sourcePoint" />
            <mxPoint x="582" y="1296" as="targetPoint" />
          </mxGeometry>
        </mxCell>
        <mxCell id="jmjiHeXXMgDuQLnsEKiA-106" value="کارت ماشین" style="ellipse;whiteSpace=wrap;html=1;align=center;fontSize=29;" vertex="1" parent="1">
          <mxGeometry x="1120" y="1116" width="100" height="84" as="geometry" />
        </mxCell>
        <mxCell id="jmjiHeXXMgDuQLnsEKiA-107" value="" style="endArrow=none;html=1;rounded=0;entryX=0.5;entryY=1;entryDx=0;entryDy=0;exitX=1;exitY=0;exitDx=0;exitDy=0;" edge="1" parent="1" source="jmjiHeXXMgDuQLnsEKiA-106" target="jmjiHeXXMgDuQLnsEKiA-92">
          <mxGeometry relative="1" as="geometry">
            <mxPoint x="1220" y="1030" as="sourcePoint" />
            <mxPoint x="1294" y="974" as="targetPoint" />
          </mxGeometry>
        </mxCell>
        <mxCell id="jmjiHeXXMgDuQLnsEKiA-108" value="کارت موتور" style="ellipse;whiteSpace=wrap;html=1;align=center;fontSize=29;" vertex="1" parent="1">
          <mxGeometry x="1720" y="1096" width="100" height="84" as="geometry" />
        </mxCell>
        <mxCell id="jmjiHeXXMgDuQLnsEKiA-109" value="" style="endArrow=none;html=1;rounded=0;entryX=0.373;entryY=1.007;entryDx=0;entryDy=0;exitX=1;exitY=0;exitDx=0;exitDy=0;entryPerimeter=0;" edge="1" parent="1" source="jmjiHeXXMgDuQLnsEKiA-108" target="jmjiHeXXMgDuQLnsEKiA-90">
          <mxGeometry relative="1" as="geometry">
            <mxPoint x="1820" y="1010" as="sourcePoint" />
            <mxPoint x="1905" y="940" as="targetPoint" />
          </mxGeometry>
        </mxCell>
        <mxCell id="jmjiHeXXMgDuQLnsEKiA-112" value="شناسه" style="ellipse;whiteSpace=wrap;html=1;align=center;fontSize=29;" vertex="1" parent="1">
          <mxGeometry x="1060" y="160" width="170" height="40" as="geometry" />
        </mxCell>
        <mxCell id="jmjiHeXXMgDuQLnsEKiA-113" value="" style="endArrow=none;html=1;rounded=0;exitX=1;exitY=0.75;exitDx=0;exitDy=0;entryX=0;entryY=0.5;entryDx=0;entryDy=0;" edge="1" parent="1" source="kXjSdllbdSpg_7BeK22m-10" target="jmjiHeXXMgDuQLnsEKiA-112">
          <mxGeometry relative="1" as="geometry">
            <mxPoint x="950" y="225" as="sourcePoint" />
            <mxPoint x="1045" y="144" as="targetPoint" />
          </mxGeometry>
        </mxCell>
        <mxCell id="jmjiHeXXMgDuQLnsEKiA-114" value="" style="endArrow=none;html=1;rounded=0;exitX=1;exitY=1;exitDx=0;exitDy=0;entryX=0;entryY=1;entryDx=0;entryDy=0;" edge="1" parent="1" source="kXjSdllbdSpg_7BeK22m-10" target="jmjiHeXXMgDuQLnsEKiA-115">
          <mxGeometry relative="1" as="geometry">
            <mxPoint x="960" y="235" as="sourcePoint" />
            <mxPoint x="1055" y="154" as="targetPoint" />
          </mxGeometry>
        </mxCell>
        <mxCell id="jmjiHeXXMgDuQLnsEKiA-115" value="رمزعبور" style="ellipse;whiteSpace=wrap;html=1;align=center;fontSize=29;" vertex="1" parent="1">
          <mxGeometry x="1030" y="220" width="170" height="40" as="geometry" />
        </mxCell>
        <mxCell id="jmjiHeXXMgDuQLnsEKiA-116" value="تاریخ تایید" style="ellipse;whiteSpace=wrap;html=1;align=center;fontSize=29;" vertex="1" parent="1">
          <mxGeometry x="520" y="350" width="170" height="40" as="geometry" />
        </mxCell>
        <mxCell id="jmjiHeXXMgDuQLnsEKiA-117" value="" style="endArrow=none;html=1;rounded=0;exitX=1;exitY=0.5;exitDx=0;exitDy=0;entryX=0;entryY=0.5;entryDx=0;entryDy=0;" edge="1" parent="1" source="jmjiHeXXMgDuQLnsEKiA-116" target="kXjSdllbdSpg_7BeK22m-53">
          <mxGeometry relative="1" as="geometry">
            <mxPoint x="625" y="376" as="sourcePoint" />
            <mxPoint x="740" y="370" as="targetPoint" />
          </mxGeometry>
        </mxCell>
        <mxCell id="jmjiHeXXMgDuQLnsEKiA-120" value="Entity" style="whiteSpace=wrap;html=1;align=center;" vertex="1" parent="1">
          <mxGeometry x="200" y="840" width="100" height="40" as="geometry" />
        </mxCell>
        <mxCell id="jmjiHeXXMgDuQLnsEKiA-121" value="&lt;font style=&quot;font-size: 24px;&quot;&gt;کیف پول&lt;/font&gt;" style="ellipse;whiteSpace=wrap;html=1;align=center;" vertex="1" parent="1">
          <mxGeometry x="140" y="410" width="100" height="40" as="geometry" />
        </mxCell>
        <mxCell id="jmjiHeXXMgDuQLnsEKiA-122" value="&lt;font style=&quot;font-size: 24px;&quot;&gt;کیف پول&lt;/font&gt;" style="ellipse;whiteSpace=wrap;html=1;align=center;" vertex="1" parent="1">
          <mxGeometry x="140" y="340" width="100" height="40" as="geometry" />
        </mxCell>
        <mxCell id="jmjiHeXXMgDuQLnsEKiA-123" value="" style="endArrow=none;html=1;rounded=0;exitX=0.656;exitY=0.997;exitDx=0;exitDy=0;exitPerimeter=0;" edge="1" parent="1" source="kXjSdllbdSpg_7BeK22m-8" target="jmjiHeXXMgDuQLnsEKiA-122">
          <mxGeometry relative="1" as="geometry">
            <mxPoint x="100" y="300" as="sourcePoint" />
            <mxPoint x="64" y="349" as="targetPoint" />
          </mxGeometry>
        </mxCell>
      </root>
    </mxGraphModel>
  </diagram>
</mxfile>
